<?xml version="1.0" encoding="UTF-8"?><svg id="Layer_1" xmlns="http://www.w3.org/2000/svg" viewBox="0 0 343 240"><defs><style>.cls-1{fill:navy;}.cls-2{stroke-miterlimit:10;stroke-width:2px;}.cls-2,.cls-3,.cls-4{fill:none;stroke:#d3d3d3;}.cls-5{fill:#d3d3d3;}.cls-3{stroke-width:20px;}.cls-3,.cls-4{stroke-linecap:round;stroke-linejoin:round;}.cls-4{stroke-width:5.3px;}</style></defs><rect class="cls-1" x="10" y="10" width="323" height="220" rx="31.32" ry="31.32"/><path d="M301.68,20c11.76,0,21.32,9.57,21.32,21.32v157.35c0,11.76-9.57,21.32-21.32,21.32H41.32c-11.76,0-21.32-9.57-21.32-21.32V41.32c0-11.76,9.57-21.32,21.32-21.32h260.35M301.68,0H41.32C18.5,0,0,18.5,0,41.32v157.35c0,22.82,18.5,41.32,41.32,41.32h260.35c22.82,0,41.32-18.5,41.32-41.32V41.32c0-22.82-18.5-41.32-41.32-41.32h0Z"/><circle class="cls-5" cx="159.95" cy="144.25" r="9.67"/><circle class="cls-5" cx="159.95" cy="165.58" r="9.67"/><circle class="cls-5" cx="159.47" cy="123.15" r="9.67"/><circle class="cls-5" cx="181.16" cy="122.88" r="9.67"/><rect class="cls-5" x="193.28" y="152.72" width="67" height="20.53" rx="3.57" ry="3.57"/><rect class="cls-2" x="190.78" y="149.75" width="93" height="26" rx="5.64" ry="5.64"/><g id="Interface_Checkbox_Check"><path id="Vector" class="cls-4" d="M225.03,113.38l7.96,7.96,13.26-15.91M214.78,126.35v-25.2c0-2.94,0-4.41.57-5.53.5-.99,1.31-1.79,2.29-2.29,1.12-.57,2.59-.57,5.53-.57h25.2c2.94,0,4.41,0,5.53.57.99.5,1.79,1.31,2.3,2.29.57,1.12.57,2.59.57,5.53v25.22c0,2.93,0,4.4-.57,5.52-.5.99-1.31,1.79-2.3,2.3-1.12.57-2.59.57-5.52.57h-25.22c-2.93,0-4.4,0-5.53-.57-.99-.5-1.79-1.31-2.29-2.3-.57-1.12-.57-2.59-.57-5.53Z"/></g><path class="cls-3" d="M59.22,165.15l50.45-50.45-50.45-50.45"/></svg>